# xmcd CD database file
#
# Track frame offsets:
#	150
#	14728
#	27380
#	39045
#	52088
#	66980
#	79405
#	91580
#	104160
#	116785
#	132700
#	145263
#	159598
#	172305
#	184693
#	196770
#	210788
#	222670
#
# Disc length: 3094 seconds
#
# Revision: 2
# Processed by: cddbd v1.4b41PL1 Copyright (c) Steve Scherf et al.
# Submitted via: Feurio! 1.50.2ß - http://www.feurio.com
#
DISCID=120c1412
DTITLE=Ernest Tubb - It's country time CD 3/3
DYEAR=1900
DGENRE=
TTITLE0=Give me an old fashion love
TTITLE1=One more day
TTITLE2=Don't just stand there
TTITLE3=I'll always be glad to take you
TTITLE4=I wonder why you said goodbye
TTITLE5=Journey's end
TTITLE6=Thanks a lot
TTITLE7=You nearly lose your mind
TTITLE8=Sweet thang
TTITLE9=Soldier's last letter (& Johnny Cash)
TTITLE10=Drivin' nails in my coffin
TTITLE11=It's been so long, darling
TTITLE12=Dear Judge
TTITLE13=Try me one more time
TTITLE14=A month of sundays
TTITLE15=Our baby's book
TTITLE16=On the top of old Smokey
TTITLE17=Sometimes I do
EXTD=
EXTT0=
EXTT1=
EXTT2=
EXTT3=
EXTT4=
EXTT5=
EXTT6=
EXTT7=
EXTT8=
EXTT9=
EXTT10=
EXTT11=
EXTT12=
EXTT13=
EXTT14=
EXTT15=
EXTT16=
EXTT17=
PLAYORDER=
